<mxfile host="65bd71144e">
    <diagram id="IR7CZ_c5j1JPPjHMW4Eo" name="Page-1">
        <mxGraphModel dx="1660" dy="771" grid="1" gridSize="10" guides="1" tooltips="1" connect="1" arrows="1" fold="1" page="1" pageScale="1" pageWidth="850" pageHeight="1100" background="#000000" math="0" shadow="0">
            <root>
                <mxCell id="0"/>
                <mxCell id="1" parent="0"/>
                <mxCell id="8" style="edgeStyle=none;html=1;exitX=0.5;exitY=1;exitDx=0;exitDy=0;entryX=0.417;entryY=0;entryDx=0;entryDy=0;entryPerimeter=0;" edge="1" parent="1" source="2" target="5">
                    <mxGeometry relative="1" as="geometry"/>
                </mxCell>
                <mxCell id="9" style="edgeStyle=none;html=1;exitX=0.5;exitY=1;exitDx=0;exitDy=0;entryX=0.5;entryY=0;entryDx=0;entryDy=0;" edge="1" parent="1" source="2" target="4">
                    <mxGeometry relative="1" as="geometry"/>
                </mxCell>
                <mxCell id="10" style="edgeStyle=none;html=1;exitX=0.5;exitY=1;exitDx=0;exitDy=0;entryX=0.5;entryY=0;entryDx=0;entryDy=0;" edge="1" parent="1" source="2" target="6">
                    <mxGeometry relative="1" as="geometry"/>
                </mxCell>
                <mxCell id="2" value="SRMIST" style="whiteSpace=wrap;html=1;" parent="1" vertex="1">
                    <mxGeometry x="350" y="20" width="120" height="60" as="geometry"/>
                </mxCell>
                <mxCell id="12" style="edgeStyle=none;html=1;exitX=0.5;exitY=1;exitDx=0;exitDy=0;entryX=0.5;entryY=0;entryDx=0;entryDy=0;" edge="1" parent="1" source="4" target="11">
                    <mxGeometry relative="1" as="geometry"/>
                </mxCell>
                <mxCell id="4" value="Student" style="whiteSpace=wrap;html=1;" parent="1" vertex="1">
                    <mxGeometry x="180" y="150" width="120" height="60" as="geometry"/>
                </mxCell>
                <mxCell id="13" style="edgeStyle=none;html=1;exitX=0.5;exitY=1;exitDx=0;exitDy=0;entryX=0.5;entryY=0;entryDx=0;entryDy=0;" edge="1" parent="1" source="5" target="11">
                    <mxGeometry relative="1" as="geometry">
                        <mxPoint x="420" y="350" as="targetPoint"/>
                    </mxGeometry>
                </mxCell>
                <mxCell id="5" value="Teacher" style="whiteSpace=wrap;html=1;" parent="1" vertex="1">
                    <mxGeometry x="360" y="150" width="120" height="60" as="geometry"/>
                </mxCell>
                <mxCell id="6" value="Admin" style="whiteSpace=wrap;html=1;" parent="1" vertex="1">
                    <mxGeometry x="540" y="150" width="120" height="60" as="geometry"/>
                </mxCell>
                <mxCell id="16" style="edgeStyle=none;html=1;exitX=0.5;exitY=1;exitDx=0;exitDy=0;entryX=0.5;entryY=0;entryDx=0;entryDy=0;" edge="1" parent="1" source="11" target="14">
                    <mxGeometry relative="1" as="geometry"/>
                </mxCell>
                <mxCell id="17" style="edgeStyle=none;html=1;exitX=0.5;exitY=1;exitDx=0;exitDy=0;entryX=0.5;entryY=0;entryDx=0;entryDy=0;" edge="1" parent="1" source="11" target="15">
                    <mxGeometry relative="1" as="geometry"/>
                </mxCell>
                <mxCell id="11" value="BTECH" style="whiteSpace=wrap;html=1;" vertex="1" parent="1">
                    <mxGeometry x="270" y="340" width="120" height="60" as="geometry"/>
                </mxCell>
                <mxCell id="14" value="CSE" style="whiteSpace=wrap;html=1;" vertex="1" parent="1">
                    <mxGeometry x="110" y="490" width="120" height="60" as="geometry"/>
                </mxCell>
                <mxCell id="28" style="edgeStyle=none;html=1;exitX=0.5;exitY=1;exitDx=0;exitDy=0;entryX=0.5;entryY=0;entryDx=0;entryDy=0;" edge="1" parent="1" source="15" target="18">
                    <mxGeometry relative="1" as="geometry"/>
                </mxCell>
                <mxCell id="29" style="edgeStyle=none;html=1;exitX=0.5;exitY=1;exitDx=0;exitDy=0;entryX=0.5;entryY=0;entryDx=0;entryDy=0;" edge="1" parent="1" source="15" target="19">
                    <mxGeometry relative="1" as="geometry"/>
                </mxCell>
                <mxCell id="30" style="edgeStyle=none;html=1;exitX=0.5;exitY=1;exitDx=0;exitDy=0;entryX=0.5;entryY=0;entryDx=0;entryDy=0;" edge="1" parent="1" source="15" target="20">
                    <mxGeometry relative="1" as="geometry"/>
                </mxCell>
                <mxCell id="31" style="edgeStyle=none;html=1;exitX=0.5;exitY=1;exitDx=0;exitDy=0;entryX=0.5;entryY=0;entryDx=0;entryDy=0;" edge="1" parent="1" source="15" target="21">
                    <mxGeometry relative="1" as="geometry"/>
                </mxCell>
                <mxCell id="32" style="edgeStyle=none;html=1;exitX=0.5;exitY=1;exitDx=0;exitDy=0;entryX=0.5;entryY=0;entryDx=0;entryDy=0;" edge="1" parent="1" source="15" target="22">
                    <mxGeometry relative="1" as="geometry"/>
                </mxCell>
                <mxCell id="15" value="CSE SPECIALIZATION" style="whiteSpace=wrap;html=1;" vertex="1" parent="1">
                    <mxGeometry x="430" y="490" width="120" height="60" as="geometry"/>
                </mxCell>
                <mxCell id="18" value="CS" style="whiteSpace=wrap;html=1;" vertex="1" parent="1">
                    <mxGeometry x="130" y="650" width="120" height="60" as="geometry"/>
                </mxCell>
                <mxCell id="19" value="BDA" style="whiteSpace=wrap;html=1;" vertex="1" parent="1">
                    <mxGeometry x="280" y="650" width="120" height="60" as="geometry"/>
                </mxCell>
                <mxCell id="20" value="IT" style="whiteSpace=wrap;html=1;" vertex="1" parent="1">
                    <mxGeometry x="430" y="650" width="120" height="60" as="geometry"/>
                </mxCell>
                <mxCell id="21" value="GT" style="whiteSpace=wrap;html=1;" vertex="1" parent="1">
                    <mxGeometry x="580" y="650" width="120" height="60" as="geometry"/>
                </mxCell>
                <mxCell id="22" value="BIOTECH" style="whiteSpace=wrap;html=1;" vertex="1" parent="1">
                    <mxGeometry x="730" y="650" width="120" height="60" as="geometry"/>
                </mxCell>
            </root>
        </mxGraphModel>
    </diagram>
</mxfile>